<svg xmlns="http://www.w3.org/2000/svg" xml:space="preserve" style="enable-background:new 0 0 100 100" viewBox="0 0 100 125"><switch style="fill:#e7ebee;fill-opacity:1" transform="translate(.019 12.498)"><g style="fill:#e7ebee;fill-opacity:1"><g style="fill:#e7ebee;fill-opacity:1"><path d="M26.7 64.9 25 63.1 6.4 79.6C2.1 83.4 1.9 90.1 6 94.1l.2.2c4.1 4.1 10.7 3.9 14.5-.4l23.5-26.5c-2.1 1.3-4.6 2-7.2 2-3.9 0-7.7-1.6-10.3-4.5zM96.5 22c-1.4-1.4-3.6-1.4-5 0L72.6 40.8c-.7.7-1.9.7-2.6 0l-1.5-1.6c-.7-.7-.7-1.9 0-2.6l18.9-18.9c1.4-1.4 1.4-3.6 0-5s-3.6-1.4-5 0l-18.8 19c-.7.7-1.9.7-2.6 0l-1.6-1.5c-.7-.7-.7-1.9 0-2.6L78.3 8.8c1.4-1.4 1.4-3.6 0-5s-3.6-1.4-5 0l-22 22c-3.2 3.2-3.2 8.4 0 11.6L62.8 49c1.6 1.6 3.7 2.4 5.8 2.4 2.1 0 4.2-.8 5.8-2.4l22-22c1.4-1.4 1.4-3.7.1-5z" style="fill:#e7ebee;fill-opacity:1"/><path d="M10.4 4.2C8.7 2.4 5.7 3.1 4.8 5.4.1 17.5 2.7 31.3 11.7 41l18.9 20.3c3.3 3.6 9 3.7 12.4.2l2.4-2.4 24.4 33.4c3.7 5.1 11.1 5.7 15.6 1.2 4-4 4-10.5 0-14.5z" style="fill:#e7ebee;fill-opacity:1"/></g></g></switch><text x="-4.237" y="141.483" font-size="5" font-weight="bold" style="font-weight:700;font-size:5px;font-family:&quot;Helvetica Neue&quot;,Helvetica,Arial-Unicode,Arial,Sans-serif;fill:#000">Created by Adrien Coquet</text><text x="-1.059" y="147.542" font-size="5" font-weight="bold" style="font-weight:700;font-size:5px;font-family:&quot;Helvetica Neue&quot;,Helvetica,Arial-Unicode,Arial,Sans-serif;fill:#000">from the Noun Project</text></svg>