<?xml version="1.0" standalone="no"?>
<!DOCTYPE svg PUBLIC "-//W3C//DTD SVG 20010904//EN"
 "http://www.w3.org/TR/2001/REC-SVG-20010904/DTD/svg10.dtd">
<svg version="1.0" xmlns="http://www.w3.org/2000/svg"
 width="1000.000000pt" height="1000.000000pt" viewBox="0 0 1000.000000 1000.000000"
 preserveAspectRatio="xMidYMid meet">
<metadata>
Created by potrace 1.14, written by Peter Selinger 2001-2017
</metadata>
<g transform="translate(0.000000,1000.000000) scale(0.100000,-0.100000)"
fill="#000000" stroke="none">
<path d="M6972 8762 c-29 -11 -65 -30 -80 -43 -55 -50 -1853 -1849 -1847
-1849 4 0 -6 -17 -22 -37 -41 -53 -76 -141 -99 -248 -8 -33 -12 -169 -6 -179
3 -5 6 -25 7 -45 2 -43 37 -147 65 -193 11 -18 24 -43 29 -54 14 -31 75 -95
602 -625 488 -490 507 -507 637 -558 79 -31 107 -35 242 -35 108 1 135 4 198
27 41 14 99 41 130 59 42 24 303 279 984 958 1034 1031 983 974 982 1110 0 58
-6 85 -24 120 -38 74 -98 121 -180 142 -60 15 -78 16 -130 4 -85 -19 -24 39
-1367 -1297 -164 -163 -307 -301 -319 -307 -74 -39 -127 -20 -224 80 -43 45
-83 91 -88 102 -15 31 -25 60 -24 67 1 4 3 18 6 32 2 14 10 35 16 48 7 12 362
372 789 799 601 601 782 787 800 825 36 72 35 171 -2 240 -29 55 -70 105 -87
105 -5 0 -10 3 -10 8 0 4 -21 16 -48 27 -65 27 -161 26 -225 -4 -52 -24 -44
-16 -1027 -1010 -311 -315 -576 -579 -589 -588 -35 -23 -100 -24 -141 -2 -56
29 -185 159 -199 200 -12 38 -5 119 10 119 5 0 9 4 9 9 0 4 189 197 421 427
1139 1135 1141 1137 1162 1184 11 25 21 70 23 101 3 58 -12 139 -27 139 -5 0
-9 6 -9 14 0 21 -75 93 -121 116 -58 30 -151 35 -217 12z"/>
<path d="M1563 8732 c-29 -8 -53 -18 -53 -23 0 -5 -6 -9 -14 -9 -21 0 -85 -76
-107 -128 -49 -113 -133 -408 -144 -501 -2 -20 -7 -49 -10 -66 -35 -171 -40
-540 -11 -770 7 -52 16 -109 20 -130 2 -11 11 -54 20 -95 22 -110 87 -329 116
-395 5 -11 22 -51 38 -90 47 -111 102 -224 113 -230 5 -4 7 -11 4 -16 -4 -5
-1 -9 4 -9 6 0 11 -5 11 -10 0 -6 23 -47 50 -91 28 -44 50 -84 50 -89 0 -5 3
-10 8 -12 4 -1 29 -33 55 -70 83 -117 192 -246 332 -394 26 -27 167 -178 265
-284 58 -63 234 -252 270 -290 141 -151 242 -258 257 -276 15 -18 103 -112
283 -305 19 -20 82 -88 140 -150 188 -202 274 -285 329 -318 56 -34 161 -83
161 -76 0 3 11 0 24 -5 40 -15 107 -23 181 -23 59 1 91 4 160 17 28 5 124 41
151 57 95 53 101 58 253 207 106 104 116 112 128 95 7 -10 19 -25 26 -33 6 -9
28 -38 47 -65 19 -28 38 -54 42 -60 5 -5 36 -48 70 -95 34 -47 66 -86 70 -88
4 -2 8 -8 8 -12 0 -5 40 -63 89 -128 49 -65 95 -129 102 -142 8 -13 21 -31 29
-41 22 -26 33 -40 60 -79 13 -19 28 -39 33 -45 4 -5 44 -59 88 -120 44 -60 86
-118 94 -127 7 -9 18 -25 24 -36 6 -11 17 -26 24 -34 7 -7 28 -35 47 -63 19
-27 39 -55 45 -61 5 -6 35 -46 65 -88 30 -42 71 -98 90 -124 19 -26 55 -76 80
-110 25 -35 55 -75 67 -90 13 -15 23 -33 23 -39 0 -7 4 -13 9 -13 4 0 28 -28
52 -62 24 -35 47 -67 52 -73 4 -5 80 -109 168 -230 88 -121 167 -230 177 -242
9 -12 24 -31 32 -44 23 -33 144 -198 184 -251 20 -25 36 -49 36 -52 0 -3 8
-14 18 -24 9 -10 33 -36 53 -58 51 -56 110 -107 139 -122 14 -7 46 -26 73 -42
26 -16 47 -27 47 -24 0 4 11 -1 25 -10 14 -9 25 -14 25 -11 0 3 12 -1 28 -8
15 -8 45 -18 67 -22 22 -5 47 -10 55 -12 8 -3 71 -5 140 -5 99 -1 143 4 210
21 47 13 90 27 96 32 6 5 14 6 17 2 4 -3 7 -2 7 4 0 6 10 13 23 17 21 5 129
70 163 99 130 107 249 289 279 426 3 12 7 31 10 44 18 79 21 327 5 327 -3 0
-6 9 -7 21 -6 79 -92 257 -168 347 -57 67 -6082 6085 -6109 6101 -63 37 -134
45 -213 23z"/>
<path d="M2963 3917 c-67 -57 -84 -71 -117 -102 -18 -16 -66 -59 -106 -95 -41
-36 -86 -76 -101 -90 -15 -14 -51 -45 -79 -70 -28 -25 -62 -54 -74 -65 -12
-11 -55 -49 -96 -85 -40 -36 -78 -69 -84 -75 -6 -5 -45 -39 -86 -75 -41 -36
-88 -78 -106 -95 -17 -16 -58 -52 -89 -80 -71 -61 -141 -123 -171 -150 -19
-18 -125 -112 -174 -155 -275 -241 -313 -288 -384 -468 -24 -61 -30 -86 -45
-187 -10 -72 -5 -181 13 -256 38 -167 102 -279 230 -404 179 -176 360 -249
596 -240 115 4 129 6 221 35 67 20 193 88 244 130 47 39 145 142 145 152 0 5
5 6 10 3 6 -3 10 -1 10 5 0 6 11 23 25 38 14 15 37 41 53 58 15 17 47 54 72
81 53 59 147 165 216 244 94 106 189 213 214 240 14 15 45 51 70 80 25 29 56
64 70 79 14 14 38 41 54 60 15 19 49 58 75 85 25 28 69 77 96 110 28 32 59 68
71 79 11 12 54 59 95 106 83 95 125 142 154 174 11 12 43 49 72 82 28 32 62
71 75 85 12 14 50 56 83 93 33 37 69 78 80 90 11 13 49 56 85 96 36 40 82 91
102 114 40 45 35 59 -11 27 -16 -12 -35 -21 -43 -21 -8 0 -18 -4 -23 -9 -21
-19 -173 -63 -263 -77 -20 -3 -48 -7 -62 -10 -33 -5 -209 -6 -235 -1 -11 3
-45 8 -75 13 -58 8 -67 10 -75 14 -3 1 -9 4 -15 5 -5 1 -13 4 -17 5 -5 1 -12
3 -18 4 -27 4 -89 27 -138 52 -16 8 -35 14 -43 14 -8 0 -14 5 -14 10 0 6 -6
10 -12 10 -38 0 -183 113 -305 236 l-131 134 -39 -33z"/>
</g>
</svg>
